# xmcd
#
# Track frame offsets:
#	150
#	18738
#	32151
#	53315
#	69530
#	90198
#	113625
#	128292
#	144450
#	183379
#
# Disc length: 2745 seconds
#
# Revision: 1
# Processed by: cddbd v1.5.2PL0 Copyright (c) Steve Scherf et al.
# Submitted via: audiograbber 1.82.01
#
DISCID=740ab70a
DTITLE=Reverend Schulzz - Mayfly
DYEAR=1998
DGENRE=
TTITLE0=For Another Day
TTITLE1=Airplane Song
TTITLE2=The Lighthouse-Keeper
TTITLE3=Travel Agency Girl
TTITLE4=BrianThe Juggler
TTITLE5=My Neighbour's House
TTITLE6=Pony
TTITLE7=Ten Minutes Before Closing Time
TTITLE8=Mayfly
TTITLE9=The Last Glass Of Wine
EXTD=
EXTT0=
EXTT1=
EXTT2=
EXTT3=
EXTT4=
EXTT5=
EXTT6=
EXTT7=
EXTT8=
EXTT9=
PLAYORDER=
